<?xml version="1.0" standalone="no"?>
<!DOCTYPE svg PUBLIC "-//W3C//DTD SVG 20010904//EN"
 "http://www.w3.org/TR/2001/REC-SVG-20010904/DTD/svg10.dtd">
<svg version="1.0" xmlns="http://www.w3.org/2000/svg"
 width="700.000000pt" height="700.000000pt" viewBox="0 0 700.000000 700.000000"
 preserveAspectRatio="xMidYMid meet">
<metadata>
Created by potrace 1.11, written by Peter Selinger 2001-2013
</metadata>
<g transform="translate(0.000000,700.000000) scale(0.100000,-0.100000)"
fill="#000000" stroke="none">
<path d="M4460 6019 c-174 -21 -222 -30 -349 -65 -419 -114 -804 -370 -1051
-699 -37 -49 -72 -99 -78 -111 -11 -20 -11 -20 -99 -2 -87 18 -286 26 -348 15
-16 -3 -50 -9 -74 -12 -70 -10 -199 -54 -284 -96 -171 -85 -317 -223 -421
-396 -1 -1 -31 -5 -66 -9 -100 -10 -275 -57 -377 -102 -51 -21 -136 -69 -190
-105 -91 -60 -230 -188 -270 -247 -9 -14 -19 -27 -22 -30 -29 -25 -102 -161
-141 -259 -38 -96 -61 -220 -63 -331 -2 -114 7 -224 23 -264 5 -14 8 -26 5
-26 -6 0 39 -127 70 -195 117 -260 387 -496 686 -599 158 -54 262 -68 534 -71
105 -2 191 -3 192 -4 1 0 -17 -47 -39 -103 -22 -57 -44 -114 -48 -128 -5 -14
-20 -56 -34 -95 -15 -38 -29 -81 -31 -95 -3 -14 -7 -36 -11 -50 -3 -14 -7 -86
-9 -160 -6 -192 24 -331 106 -493 150 -296 438 -506 764 -557 68 -11 240 -15
280 -7 11 3 42 8 69 12 69 10 231 68 304 109 197 111 344 266 437 461 48 102
58 129 81 235 19 86 26 273 14 340 -4 25 -10 59 -13 75 -10 62 -62 213 -152
436 -6 15 34 16 462 16 416 -1 579 3 649 17 12 2 37 7 55 10 118 20 204 41
314 77 120 40 131 45 268 112 525 259 897 733 1002 1274 56 291 31 609 -71
895 -31 85 -124 279 -157 322 -4 6 -22 34 -39 61 -18 28 -35 52 -38 55 -3 3
-30 37 -61 75 -297 368 -753 623 -1254 701 -121 18 -419 26 -525 13z"/>
</g>
</svg>
