<?xml version="1.0" encoding="UTF-8" standalone="no"?>
<!DOCTYPE svg PUBLIC "-//W3C//DTD SVG 1.1//EN" "http://www.w3.org/Graphics/SVG/1.1/DTD/svg11.dtd">
<svg version="1.1" xmlns="http://www.w3.org/2000/svg" xmlns:xlink="http://www.w3.org/1999/xlink" preserveAspectRatio="xMidYMid meet" viewBox="0 0 640 640" width="640" height="640"><defs><path d="M442.43 89.41L449.67 90.12L456.83 91.09L463.89 92.32L470.85 93.8L477.7 95.53L484.45 97.49L491.07 99.69L497.57 102.13L503.95 104.78L510.19 107.66L516.29 110.74L522.24 114.04L528.04 117.54L533.68 121.24L539.16 125.12L544.47 129.2L549.6 133.46L554.56 137.89L559.32 142.5L563.9 147.26L568.27 152.19L572.44 157.28L576.41 162.51L580.15 167.89L583.68 173.4L586.98 179.05L590.04 184.83L592.87 190.73L595.45 196.74L597.78 202.87L599.85 209.1L601.67 215.43L603.21 221.86L604.49 228.38L605.48 234.99L606.19 241.67L606.61 248.43L606.73 255.25L606.55 262.08L606.07 268.83L605.31 275.51L604.26 282.11L602.93 288.61L601.33 295.03L599.46 301.35L597.34 307.56L594.95 313.67L592.32 319.66L589.45 325.54L586.33 331.29L582.99 336.91L579.41 342.39L575.62 347.74L571.62 352.94L567.4 357.99L562.98 362.88L558.37 367.61L553.56 372.17L548.57 376.56L543.4 380.78L538.06 384.81L532.55 388.65L526.88 392.3L521.05 395.75L515.07 399L508.94 402.03L502.68 404.85L496.28 407.45L489.76 409.83L483.12 411.98L476.36 413.88L469.49 415.55L462.51 416.97L455.44 418.14L448.28 419.05L441.03 419.7L433.7 420.08L426.3 420.19L166.61 419.09L162.07 418.98L157.58 418.71L153.15 418.27L148.77 417.68L144.44 416.92L140.18 416.01L135.98 414.94L131.85 413.73L127.79 412.37L123.81 410.88L119.91 409.24L116.09 407.47L112.35 405.56L108.7 403.53L105.15 401.38L101.7 399.1L98.34 396.7L95.09 394.19L91.95 391.56L88.91 388.83L85.99 385.99L83.19 383.05L80.51 380.02L77.96 376.88L75.53 373.66L73.24 370.34L71.08 366.94L69.06 363.46L67.18 359.9L65.45 356.26L63.87 352.56L62.44 348.78L61.17 344.94L60.06 341.03L59.11 337.07L58.33 333.05L57.73 328.98L57.29 324.86L57.04 320.7L56.96 316.49L57.07 312.28L57.36 308.12L57.83 304L58.47 299.94L59.29 295.92L60.27 291.97L61.41 288.08L62.71 284.24L64.17 280.48L65.79 276.79L67.55 273.16L69.45 269.62L71.5 266.16L73.69 262.77L76.01 259.48L78.47 256.28L81.05 253.16L83.75 250.15L86.58 247.23L89.52 244.42L92.58 241.71L95.75 239.11L99.02 236.63L102.39 234.26L105.87 232.01L109.44 229.89L113.1 227.88L116.85 226.01L120.69 224.27L124.61 222.67L128.6 221.21L132.67 219.88L136.81 218.71L141.02 217.68L145.29 216.8L149.62 216.08L154.01 215.52L158.45 215.12L160.41 215.02L161.01 213.91L162.74 211L164.59 208.15L166.56 205.38L168.63 202.69L170.82 200.07L173.11 197.53L175.5 195.08L177.99 192.72L180.58 190.44L183.26 188.26L186.03 186.17L188.89 184.18L191.83 182.28L194.85 180.5L197.95 178.81L201.12 177.24L204.37 175.78L207.69 174.43L211.07 173.2L214.51 172.08L218.01 171.1L221.58 170.23L225.19 169.49L228.86 168.89L232.57 168.42L236.33 168.08L240.13 167.88L243.96 167.83L247.8 167.92L251.6 168.14L255.35 168.51L259.06 169.02L262.72 169.65L266.33 170.42L269.88 171.31L271.25 171.71L274.58 166.59L278.37 161.25L282.38 156.05L286.59 151L291.01 146.11L295.62 141.38L300.43 136.82L305.42 132.42L310.59 128.21L315.93 124.18L321.45 120.34L327.12 116.69L332.95 113.24L338.93 109.99L345.05 106.96L351.32 104.13L357.71 101.53L364.24 99.16L370.88 97.01L377.64 95.1L384.51 93.44L391.48 92.02L398.55 90.85L405.72 89.94L412.96 89.29L420.29 88.91L427.7 88.8L435.1 88.97L442.43 89.41Z" id="aD8sMkz6"></path><path d="" id="d7Ih2IOWzU"></path><path d="M274.5 240.31L274.9 240.36L275.29 240.44L275.68 240.54L276.07 240.67L276.44 240.81L276.81 240.98L277.17 241.17L277.52 241.38L277.85 241.61L278.18 241.87L278.49 242.15L278.78 242.45L279.06 242.77L279.32 243.12L279.56 243.49L279.79 243.88L279.99 244.29L280.17 244.73L355.7 443.68L356.28 444.97L357.58 448.22L358.75 451.53L359.8 454.89L360.72 458.31L361.5 461.79L362.15 465.31L362.66 468.88L363.02 472.49L363.25 476.15L363.32 479.84L363.25 483.53L363.02 487.18L362.66 490.79L362.15 494.36L361.5 497.89L360.72 501.36L359.8 504.78L358.75 508.15L357.58 511.45L356.28 514.7L354.85 517.88L353.31 521L351.66 524.05L349.89 527.02L348.01 529.92L346.02 532.74L343.93 535.48L341.74 538.14L339.45 540.71L337.06 543.19L334.59 545.57L332.02 547.86L329.36 550.05L326.62 552.14L323.8 554.13L320.9 556.01L317.93 557.78L314.88 559.43L311.76 560.97L308.58 562.4L305.33 563.7L302.03 564.87L298.66 565.92L295.24 566.84L291.77 567.62L288.24 568.27L284.67 568.78L281.06 569.15L277.41 569.37L273.72 569.44L270.02 569.37L266.37 569.15L262.76 568.78L259.19 568.27L255.67 567.62L252.19 566.84L248.77 565.92L245.41 564.87L242.1 563.7L238.85 562.4L235.67 560.97L232.55 559.43L229.5 557.78L226.53 556.01L223.63 554.13L220.81 552.14L218.07 550.05L215.41 547.86L212.85 545.57L210.37 543.19L207.98 540.71L205.69 538.14L203.5 535.48L201.41 532.74L199.42 529.92L197.54 527.02L195.77 524.05L194.12 521L192.58 517.88L191.16 514.7L189.86 511.45L188.68 508.15L187.63 504.78L186.72 501.36L185.93 497.89L185.28 494.36L184.77 490.79L184.41 487.18L184.18 483.53L184.11 479.84L184.18 476.15L184.41 472.49L184.77 468.88L185.28 465.31L185.93 461.79L186.53 459.13L186.53 459.13L186.49 459.03L186.45 458.93L186.42 458.84L186.39 458.73L186.37 458.63L186.36 458.53L186.35 458.42L186.34 458.32L186.34 458.21L186.34 458.11L186.35 458L186.37 457.89L186.39 457.78L186.41 457.67L186.44 457.56L186.48 457.46L188.44 452.3L188.68 451.53L189.86 448.22L191.16 444.97L191.6 443.98L267.24 244.73L267.42 244.29L267.62 243.88L267.85 243.49L268.09 243.12L268.35 242.77L268.63 242.45L268.93 242.15L269.24 241.87L269.56 241.61L269.9 241.38L270.24 241.17L270.6 240.98L270.97 240.81L271.35 240.67L271.73 240.54L272.12 240.44L272.51 240.36L272.91 240.31L273.31 240.28L273.71 240.26L274.11 240.28L274.5 240.31Z" id="h4N3W2RFeF"></path></defs><g><g><g><g><use xlink:href="#aD8sMkz6" opacity="1" fill="#28587b" fill-opacity="1"></use></g><g><g><use xlink:href="#d7Ih2IOWzU" opacity="1" fill-opacity="0" stroke="#000000" stroke-width="3" stroke-opacity="1"></use></g></g><g><use xlink:href="#h4N3W2RFeF" opacity="1" fill="#28587b" fill-opacity="1"></use><g><use xlink:href="#h4N3W2RFeF" opacity="1" fill-opacity="0" stroke="#ffffff" stroke-width="10" stroke-opacity="1"></use></g></g></g></g></g></svg>